<svg xmlns="http://www.w3.org/2000/svg" width="158" height="25" viewBox="0 0 158 25"><g><g><g><path fill="#fff" d="M17.144 8.985c-.886 0-1.607.665-1.607 1.483 0 .819.72 1.484 1.607 1.484.886 0 1.607-.665 1.607-1.484 0-.818-.721-1.483-1.607-1.483z"/></g><g><path fill="#fff" d="M1.385.238V2.56h1.851v16.59c-.009 1.28-.537 1.773-.558 1.792l-.023.023c-.006.007-.606.633-2.305.531l-.35-.02.845 2.792.128.03c.02.004.219.046.542.046.493 0 1.273-.099 2.148-.58.2-.087 2.2-1.05 2.161-4.989V.238z"/></g><g><g><path fill="#fff" d="M38.587 13.014v-4.26h6.322v-2.18h-6.361V2.37h6.594l.009-2.132h-9.09v14.956h9.279v-2.168z"/></g></g><g><path fill="#fff" d="M68.845 8.885c-.109-.25-.749-1.242-4.4-3-.464-.253-1.675-1.055-1.72-1.717l-.012-.058a1.247 1.247 0 0 1 .098-.904c.213-.392.655-.68 1.315-.854.017-.005 1.756-.447 3.432.535.217.115.82.467 1.002.708l.413.545V1.107l-.1-.068C68.787.98 66.736-.395 64.035.111c-.03.002-2.955.287-3.71 2.92-.026.085-.632 2.117.988 3.64.025.027.663.697 4.32 2.726.006.003.54.286.968.784.55.64.663 1.319.34 2.013-.007.013-.687 1.31-2.964.95l-.026-.003c-.015-.001-1.586-.098-3.29-1.9l-.398-.421v3.139l.077.068c.051.046 1.287 1.12 4.115 1.36.027.004.21.026.495.026.828 0 2.52-.19 3.764-1.591.02-.024 2-2.358.13-4.937z"/></g><g><path fill="#fff" d="M92.755.226h-10.28l.006 2.1 4.011-.023.026 12.91h2.131V2.291h4.106z"/></g><g><path fill="#fff" d="M105.252.226l-.02 14.987h2.432V.226z"/></g><g><path fill="#fff" d="M130.966.226V10.87L123.932.226h-1.749v14.987h1.983V4.692l6.962 10.521h1.845V.226z"/></g><g><path fill="#fff" d="M151.583 4.205l1.662 4.405h-3.205zm4.153 11.008H158L152.444.231l-1.664.004-5.331 14.978h2.278l1.509-4.308h4.875z"/></g></g></g></svg>